<svg xmlns="http://www.w3.org/2000/svg" width="300" height="300.002"><defs><clipPath id="a" clipPathUnits="userSpaceOnUse"><path d="M0 500h1024V0H0z"/></clipPath></defs><g clip-path="url(#a)" transform="matrix(1.11655 0 0 -1.11655 -136.954 433.606)"><path d="M0 0c8.134 0 14.73 6.596 14.73 14.73v237.434c0 8.137-6.596 14.731-14.73 14.731h-237.433c-8.137 0-14.73-6.594-14.73-14.731V14.73c0-8.134 6.593-14.73 14.73-14.73z" style="fill:#3b5998;fill-opacity:1;fill-rule:nonzero;stroke:none" transform="translate(375.716 120.553)"/><path d="M0 0v103.355h34.693l5.194 40.28H0v25.717c0 11.662 3.238 19.609 19.962 19.609l21.33.01v36.026c-3.69.49-16.351 1.587-31.081 1.587-30.753 0-51.806-18.771-51.806-53.244v-29.705h-34.781v-40.28h34.781V0z" style="fill:#fff;fill-opacity:1;fill-rule:nonzero;stroke:none" transform="translate(307.705 120.553)"/></g></svg>