<svg xmlns="http://www.w3.org/2000/svg" xml:space="preserve" id="Layer_1" x="0" y="0" version="1.1" viewBox="0 0 498.1 415.8"><style>.st1{fill:#e2e2e2}.st11{fill:#d0d0d0}.st13{fill:#d9d9d9}.st15{fill:#d8d8d8}.st17{fill:#dedede}.st22{fill:#00b8e3}.st23{fill:#33c6e9}.st24{fill:#008aaa}</style><g id="g110"><path id="path38" d="M421.8 104c-1.4 0-2.6-.7-3.3-1.9L360.7 1.9c-.7-1.2-2-1.9-3.4-1.9H121.7c-1.4 0-2.6.7-3.3 1.9l-60 104L2.5 206a3.7 3.7 0 0 0 0 3.8L58.3 310l60 104c.7 1.2 2 1.9 3.3 1.9h235.7c1.4 0 2.6-.7 3.4-1.9l57.8-100.1c.7-1.2 2-1.9 3.3-1.9h71.9c2.4 0 4.3-1.9 4.3-4.3V108.3c0-2.4-1.9-4.3-4.3-4.3z" style="fill:#4d4d4d"/><path id="path27674" d="M56.2 109.6 1 208l5.9 12.9 54.8 89.6 35.8 1.5h346.8l38.3-9.7 15.5-42.8v-95.1l-4.3-60.4H131.3z" class="st1"/><path id="path40" d="M493.8 104H61.7c-1.4 0-2.6.7-3.3 1.9v.1l-2.1 3.7-26.5 45.8L.5 206.1a3.7 3.7 0 0 0 0 3.8l6.4 11L58.3 310c.7 1.2 2 1.9 3.3 1.9h432.2c2.4 0 4.2-1.9 4.2-4.3V108.3c.1-2.4-1.8-4.3-4.2-4.3" style="fill:none"/><path id="path42" d="M71.4 197.5 6.9 220.9l-6.4-11a3.7 3.7 0 0 1 0-3.8l29.2-50.6z" style="fill:#e1e1e1"/><path id="polygon44" d="m455.5 216.2 42.6-6.1v49.3z" style="fill:#c8c8c8"/><path id="path46" d="m455.5 216.2 42.6 43.3v48.2c0 2.4-1.9 4.3-4.2 4.3h-49.5z" style="fill:#c2c2c2"/><path id="polygon48" d="m455.5 216.2-11.2 95.7h-59.5l-18-43.4z" style="fill:#c7c7c7"/><path id="polygon50" d="m455.5 216.2 42.6-51.8v45.7z" style="fill:#cecece"/><path id="path52" d="M498.1 108.3v56.1l-42.5 51.8L423.5 104h70.3c2.4 0 4.3 1.9 4.3 4.3" style="fill:#d3d3d3"/><path id="polygon54" d="M384.8 311.9h-31.4l-8.1-11.6 21.5-31.8z" style="fill:#c6c6c6"/><path id="polygon56" d="m455.5 216.2-117.7-49.8 61.9-62.4h23.8z" style="fill:#d5d5d5"/><path id="path58" d="m337.8 166.4 29 102.1 88.8-52.3z" class="st11"/><path id="polygon60" d="M353.4 311.9h-8.5l.4-11.6z" style="fill:#bfbfbf"/><path id="polygon62" d="m399.7 104-61.9 62.4-11.2-55.8 23.9-6.6z" class="st13"/><path id="path64" d="m337.8 166.4-143 33 150.5 100.9z" style="fill:#d4d4d4"/><path id="path66" d="m337.8 166.4 7.5 133.9 21.5-31.8z" class="st11"/><path id="path68" d="m326.6 110.6-131.8 88.8 143-33z" class="st13"/><path id="polygon70" d="m194.8 199.3-62 112.6H97.5L71.4 197.5z" class="st15"/><path id="path72" d="m131.3 104-59.8 93.5-15.2-87.9 2.2-3.7v-.1c.7-1.2 2-1.9 3.3-1.9h69.5z" class="st1"/><path id="path74" d="M97.5 312H61.7c-1.4 0-2.7-.8-3.3-2L6.9 220.9l64.6-23.4z" class="st15"/><path id="polygon76" d="m29.7 155.4 26.5-45.8 15.2 87.9z" style="fill:#e4e4e4"/><path id="polygon78" d="M260.1 104H155.7l39.1 95.3 131.8-88.7-39.7-6.6z" class="st17"/><path id="polygon80" d="M139.4 104h-8.1l-59.9 93.5 123.4 1.8-39.1-95.3z" class="st17"/><path id="polygon82" d="M316.6 311.9h28.3l.4-11.6z" style="fill:#c5c5c5"/><path id="polygon84" d="m345.3 300.3-150.5-101 27.1 112.6h94.7z" class="st11"/><path id="polygon86" d="M132.8 311.9h89.1l-27.1-112.6z" style="fill:#d1d1d1"/><path id="polygon88" d="m327 104-.4 6.6 23.9-6.6h-10.9z" style="fill:#ddd"/><path id="polygon90" d="m286.9 104 39.7 6.6-3.7-6.6z" style="fill:#e3e3e3"/><path id="polygon92" d="m322.9 104 3.7 6.6.4-6.6z" class="st1"/><path id="path94" d="m218.5 105.8-58.1 100.7c-.3.5-.4 1.1-.4 1.6h-40.5l79.7-138.2q.75.45 1.2 1.2l.1.1 18.1 31.4c.4 1 .4 2.2-.1 3.2" class="st22"/><path id="path96" d="m218.4 313.8-18 31.3c-.3.5-.7.9-1.2 1.1L119.3 208h40.6c0 .5.1 1.1.4 1.6 0 .1 0 .1.1.2l58 100.6c.6 1.1.6 2.4 0 3.4" class="st23"/><path id="path98" d="m199.1 69.9-79.7 138.2-20 34.7-19.1-33.1c-.3-.5-.4-1-.4-1.6s.1-1.1.4-1.6L99.6 173l58.8-101.7c.6-1.1 1.8-1.8 3-1.8h36c.6 0 1.2.1 1.7.4" class="st24"/><path id="path100" d="M199.1 346.3c-.5.3-1.1.4-1.7.5h-36.1c-1.2 0-2.4-.7-3-1.8l-53.7-93-5.3-9.2 20-34.7z" class="st22"/><path id="path102" d="m359.5 208.1-79.8 138.2c-.5-.3-.9-.7-1.2-1.1l-.1-.1-18.1-31.3c-.5-1-.5-2.2 0-3.2l58.1-100.7c.3-.5.5-1.1.5-1.8z" class="st24"/><path id="path104" d="M399 208.1c0 .6-.2 1.2-.5 1.8l-78.1 135.3c-.6 1-1.7 1.6-2.9 1.6h-36c-.6 0-1.2-.2-1.8-.5l79.8-138.2 20-34.6 19 32.9c.3.5.5 1 .5 1.7" class="st22"/><path id="path106" d="M359.5 208.1H319c0-.6-.2-1.2-.5-1.7l-58-100.5c-.6-1.1-.6-2.4 0-3.5L278.6 71q.45-.75 1.2-1.2z" class="st22"/><path id="path108" d="m379.5 173.4-20 34.6-79.8-138.1c.5-.3 1.1-.4 1.8-.4h36c1.2 0 2.3.6 2.9 1.6z" class="st23"/></g></svg>